<?xml version="1.0" encoding="UTF-8"?>
<!DOCTYPE svg PUBLIC "-//W3C//DTD SVG 1.1//EN" "http://www.w3.org/Graphics/SVG/1.1/DTD/svg11.dtd">
<!-- Creator: CorelDRAW -->
<svg xmlns="http://www.w3.org/2000/svg" xml:space="preserve" width="2429px" height="297px" version="1.1" shape-rendering="geometricPrecision" text-rendering="geometricPrecision" image-rendering="optimizeQuality" fill-rule="evenodd" clip-rule="evenodd"
viewBox="0 0 2429 296.98"
 xmlns:xlink="http://www.w3.org/1999/xlink"
 xmlns:xodm="http://www.corel.com/coreldraw/odm/2003">
 <g id="Camada_x0020_1">
  <metadata id="CorelCorpID_0Corel-Layer"/>
  <g id="_1877574928528">
   <path fill="white" fill-rule="nonzero" d="M219.98 182.1l-162.54 0 0 -40.33 209.6 0c-5.5,-17.11 -23.22,-33 -54.39,-33l-152.15 0c-34.83,0 -55,12.83 -55,40.94l0 29.95c0,24.44 20.78,38.49 51.33,38.49l164.38 0 0 42.78 -221.21 0c5.5,23.22 23.22,35.44 55,35.44l165.6 0c34.83,0 51.94,-13.44 51.94,-42.17l0 -29.94c0,-26.27 -20.17,-40.33 -52.55,-42.16l-0.01 0z"/>
   <path fill="white" fill-rule="nonzero" d="M551.8 109.38l-200.44 0 0 187.6 56.83 0 0 -72.11 147.88 0c40.94,0 63.55,-14.05 63.55,-47.05l0 -20.78c-0.61,-30.55 -26.27,-47.66 -67.82,-47.66l0 0zm18.33 59.89c0,13.44 -2.45,20.77 -24.45,20.77l-137.49 0 0.62 -48.88 134.43 0c24.44,0 27.5,7.33 27.5,20.16l0 7.95 -0.61 0z"/>
   <polygon fill="white" fill-rule="nonzero" points="784.61,101.44 750.39,143.6 808.45,223.65 687.45,223.65 657.51,255.43 832.28,255.43 862.22,296.98 929.44,296.98 "/>
   <path fill="white" fill-rule="nonzero" d="M1038.21 141.77l212.65 0c-5.5,-22 -26.89,-33 -57.44,-33l-158.88 0c-27.5,0 -53.77,11 -53.77,40.94l0 105.11c0,29.94 26.27,40.94 53.77,40.94l160.71 0c36.67,0 49.5,-10.39 55.61,-35.44l-212.65 0 0 -118.55z"/>
   <polygon fill="white" fill-rule="nonzero" points="1385.91,261.54 1385.91,204.1 1500.17,204.1 1500.17,172.32 1328.46,172.32 1328.46,296.98 1582.06,296.98 1582.06,261.54 "/>
   <rect fill="white" fill-rule="nonzero" x="1334.57" y="109.38" width="256.04" height="33"/>
   <path fill="white" fill-rule="nonzero" d="M1748.27 109.38l-89.22 0 105.11 77c15.27,-10.39 32.99,-21.39 48.88,-30.55l-64.77 -46.45 0 0zm129.55 95.94c-15.28,10.39 -30.56,22 -45.22,33l79.44 58.05 89.82 0 -124.04 -91.05z"/>
   <path fill="white" fill-rule="nonzero" d="M2429 0c-488.86,28.11 -714.95,237.09 -765.67,286.59l-10.39 9.78 90.44 0c244.43,-245.04 595.79,-288.43 685.62,-296.37z"/>
  </g>
 </g>
</svg>
